
<svg version="1.1" xmlns="http://www.w3.org/2000/svg" width="1280" height="1280" fill="#000">
<path d="M0 0 C1.16 -0.01 1.16 -0.01 2.34 -0.02 C3.97 -0.03 5.59 -0.03 7.22 -0.03 C9.65 -0.04 12.09 -0.08 14.52 -0.11 C27.83 -0.21 39.43 1.95 51.69 7.34 C53.8 7.99 55.93 8.62 58.06 9.21 C63.82 10.95 68.58 13.21 73.69 16.34 C75.6 17.44 77.52 18.55 79.44 19.65 C84.94 22.87 90.36 26.18 95.78 29.54 C97.68 30.72 99.61 31.85 101.57 32.95 C102.27 33.4 102.97 33.86 103.69 34.34 C103.69 35 103.69 35.66 103.69 36.34 C104.31 36.65 104.92 36.95 105.56 37.27 C106.94 37.96 108.31 38.65 109.69 39.34 C109.69 40 109.69 40.66 109.69 41.34 C110.68 41.67 111.67 42 112.69 42.34 C112.69 43 112.69 43.66 112.69 44.34 C113.35 44.34 114.01 44.34 114.69 44.34 C127.06 57 129.98 74.43 131.81 91.21 C132.06 93.46 132.32 95.7 132.58 97.95 C132.81 99.97 133.03 101.99 133.25 104.01 C133.59 107.14 133.59 107.14 134.22 109.38 C139.39 131.05 137.18 160.56 126.25 179.71 C124.14 183.14 121.92 186.47 119.62 189.77 C115.89 195.26 113.3 201.25 110.69 207.34 C110.19 208.49 110.19 208.49 109.68 209.66 C104.97 221.27 105.13 235.79 109.94 247.34 C111.94 250.76 114.12 254.03 116.38 257.29 C117.69 259.34 117.69 259.34 118.69 262.34 C119.35 262.34 120.01 262.34 120.69 262.34 C122.04 263.99 123.37 265.65 124.69 267.34 C125.35 267.67 126.01 268 126.69 268.34 C126.69 269 126.69 269.66 126.69 270.34 C127.52 270.7 127.52 270.7 128.38 271.06 C131.19 272.61 133.27 274.53 135.62 276.71 C138.16 279.06 140.69 281.33 143.39 283.49 C145.99 285.58 147.7 287.65 149.69 290.34 C150.25 291.06 150.81 291.78 151.39 292.53 C159.23 303.04 160.45 312.45 159.69 325.34 C159.39 327.01 159.08 328.68 158.69 330.34 C158.03 330.34 157.37 330.34 156.69 330.34 C157 331.23 157 331.23 157.31 332.15 C157.69 334.34 157.69 334.34 155.69 337.34 C155.18 339.41 154.73 341.49 154.31 343.59 C153.14 348.95 151.62 352.74 148.69 357.34 C148.53 357.97 148.38 358.61 148.22 359.27 C147.6 361.66 146.6 363.28 145.25 365.34 C143.55 367.94 142.03 370.53 140.69 373.34 C140.03 373.34 139.37 373.34 138.69 373.34 C138.29 374.79 138.29 374.79 137.88 376.27 C137.29 377.79 137.29 377.79 136.69 379.34 C135.7 379.67 134.71 380 133.69 380.34 C133.44 381.02 133.19 381.7 132.94 382.4 C131.06 386.81 127.95 389.87 124.69 393.34 C123.93 394.15 123.18 394.97 122.4 395.82 C121.63 396.63 120.86 397.44 120.06 398.27 C118.99 399.4 118.99 399.4 117.9 400.55 C115.69 402.34 115.69 402.34 113.04 402.78 C112.26 402.96 111.49 403.15 110.69 403.34 C110.39 404.08 110.09 404.82 109.79 405.58 C108.24 409.45 105.4 411.14 102.06 413.4 C101.42 413.84 100.79 414.28 100.13 414.74 C96.49 417.22 92.88 419.54 88.86 421.35 C86.46 422.44 84.14 423.67 81.81 424.9 C75.63 428.11 69.56 430.55 62.82 432.41 C59.56 433.33 59.56 433.33 55.99 434.76 C41.57 440.18 27.09 441.03 11.8 440.97 C8.52 440.96 5.24 441.01 1.96 441.06 C-18.16 441.18 -36.78 437.51 -54.31 427.34 C-55 426.97 -55.69 426.6 -56.39 426.21 C-61.17 423.62 -66.05 420.72 -70.31 417.34 C-70.31 416.68 -70.31 416.02 -70.31 415.34 C-71.24 414.96 -71.24 414.96 -72.19 414.59 C-74.72 413.1 -75.03 411.9 -76.31 409.34 C-76.92 409.05 -77.53 408.77 -78.16 408.48 C-86.16 404.21 -91.71 390.57 -94.25 382.29 C-94.99 379.32 -95.67 376.33 -96.31 373.34 C-97.94 366.15 -99.74 361.15 -104.31 355.34 C-104.31 354.68 -104.31 354.02 -104.31 353.34 C-105.2 352.92 -105.2 352.92 -106.1 352.49 C-108.14 351.42 -109.88 350.24 -111.75 348.9 C-121.54 342.8 -132.23 342.9 -143.31 344.34 C-144.46 344.49 -145.62 344.63 -146.8 344.79 C-151.31 345.43 -155.68 346.17 -160.09 347.31 C-164.68 348.48 -169.31 349.18 -174 349.84 C-175.18 350.01 -175.18 350.01 -176.39 350.19 C-179.36 350.61 -182.33 350.98 -185.31 351.34 C-185.95 351.42 -186.59 351.5 -187.25 351.58 C-206.29 353.93 -225.47 353.95 -244.62 354.34 C-285.2 355.06 -285.2 355.06 -325.62 358.34 C-333.98 359.3 -342.36 359.85 -350.75 360.33 C-351.5 360.38 -352.25 360.42 -353.02 360.46 C-372.09 361.55 -391.17 361.95 -410.26 362.34 C-417.59 362.49 -424.91 362.65 -432.24 362.81 C-434.76 362.87 -437.28 362.92 -439.8 362.97 C-441.35 363 -442.89 363.04 -444.43 363.07 C-445.12 363.08 -445.8 363.09 -446.5 363.11 C-451.18 363.22 -455.69 363.72 -460.31 364.34 C-463.04 364.55 -465.77 364.7 -468.5 364.84 C-469.25 364.88 -470 364.92 -470.77 364.96 C-473.94 365.13 -477.1 365.3 -480.27 365.46 C-482.6 365.58 -484.93 365.71 -487.25 365.84 C-488.31 365.89 -488.31 365.89 -489.39 365.94 C-493.75 366.18 -498 366.72 -502.31 367.34 C-504.41 367.46 -506.51 367.56 -508.61 367.62 C-509.75 367.65 -510.9 367.69 -512.07 367.73 C-514.46 367.8 -516.85 367.87 -519.24 367.94 C-520.37 367.98 -521.51 368.02 -522.68 368.05 C-523.71 368.08 -524.74 368.12 -525.81 368.15 C-528.31 368.18 -528.31 368.18 -530.31 369.34 C-531.95 369.59 -533.6 369.79 -535.25 369.96 C-536.13 370.06 -537 370.15 -537.9 370.25 C-540.31 370.34 -540.31 370.34 -543.31 369.34 C-543.31 370 -543.31 370.66 -543.31 371.34 C-544.06 371.48 -544.8 371.62 -545.56 371.77 C-547.08 372.08 -548.6 372.42 -550.1 372.84 C-553.92 373.69 -557.83 373.74 -561.73 373.96 C-565.18 374.32 -568.41 374.97 -571.78 375.75 C-576.71 376.89 -581.67 377.84 -586.62 378.84 C-587.68 379.05 -588.73 379.26 -589.81 379.48 C-595.09 380.54 -600.37 381.52 -605.68 382.38 C-609.91 383.07 -613.96 383.95 -618.06 385.21 C-622.52 386.54 -626.97 387.76 -631.49 388.84 C-638.37 390.48 -644.81 392.53 -651.31 395.34 C-653.87 396.36 -656.44 397.38 -659 398.4 C-666.13 401.24 -673.12 404.12 -679.88 407.77 C-680.95 408.35 -682.02 408.93 -683.13 409.52 C-686.38 411.31 -686.38 411.31 -689.53 413.56 C-692.31 415.34 -692.31 415.34 -695.31 415.34 C-695.31 416 -695.31 416.66 -695.31 417.34 C-697.39 418.74 -697.39 418.74 -700.12 420.27 C-703.66 422.2 -703.66 422.2 -706.7 424.78 C-708.71 426.72 -711 427.88 -713.44 429.22 C-717.15 431.43 -720.42 434.25 -723.77 436.98 C-728 440.34 -728 440.34 -731.31 440.34 C-731.31 441 -731.31 441.66 -731.31 442.34 C-733.82 444.17 -736.32 445.86 -738.94 447.52 C-739.7 448.01 -740.47 448.51 -741.26 449.01 C-748.05 453.31 -755.04 456.92 -762.31 460.34 C-763.35 460.92 -763.35 460.92 -764.4 461.51 C-766.75 462.52 -768.52 462.54 -771.06 462.46 C-771.86 462.44 -772.66 462.42 -773.48 462.41 C-774.39 462.37 -774.39 462.37 -775.31 462.34 C-775.31 463 -775.31 463.66 -775.31 464.34 C-800.25 467.37 -800.25 467.37 -808.31 463.34 C-809.64 463.18 -810.98 463.06 -812.31 462.96 C-820.24 462.14 -827.5 459.39 -834.82 456.36 C-836.45 455.69 -838.09 455.04 -839.74 454.4 C-855.91 448.18 -870.3 439.06 -884.38 429.09 C-885.31 428.42 -886.25 427.76 -887.22 427.07 C-887.91 426.5 -888.6 425.93 -889.31 425.34 C-889.31 424.68 -889.31 424.02 -889.31 423.34 C-889.93 423.03 -890.55 422.72 -891.19 422.4 C-892.56 421.71 -893.94 421.02 -895.31 420.34 C-895.31 419.68 -895.31 419.02 -895.31 418.34 C-895.87 418.1 -896.44 417.86 -897.02 417.62 C-907.27 411.9 -915.91 399.59 -921.31 389.34 C-921.93 388.29 -921.93 388.29 -922.55 387.22 C-925.56 382.08 -927.62 377.03 -929.31 371.34 C-929.81 369.85 -929.81 369.85 -930.31 368.34 C-930.67 366.34 -931 364.34 -931.31 362.34 C-931.48 361.41 -931.66 360.49 -931.83 359.54 C-933.91 345.72 -931.68 330.79 -928.31 317.34 C-927.98 317.34 -927.65 317.34 -927.31 317.34 C-927.09 316.1 -926.86 314.86 -926.62 313.59 C-925.2 307.12 -923.08 299.1 -918.31 294.34 C-918.01 293.58 -917.71 292.82 -917.41 292.04 C-916.19 289.04 -914.65 286.68 -912.81 284.02 C-896.36 261.52 -896.36 261.52 -892.69 234.9 C-895.31 225.73 -901.57 217.72 -908.03 210.89 C-909.31 209.34 -909.31 209.34 -909.31 207.34 C-909.97 207.34 -910.63 207.34 -911.31 207.34 C-913.04 205.66 -913.04 205.66 -914.94 203.46 C-915.57 202.74 -916.2 202.02 -916.85 201.28 C-918.31 199.34 -918.31 199.34 -918.31 197.34 C-918.97 197.34 -919.63 197.34 -920.31 197.34 C-921.9 195.54 -921.9 195.54 -923.69 193.15 C-925.67 190.52 -927.65 187.93 -929.75 185.4 C-931.31 183.34 -931.31 183.34 -931.31 181.34 C-932.3 181.01 -933.29 180.68 -934.31 180.34 C-938.03 174.16 -940.14 167.4 -941.31 160.34 C-941.58 158.93 -941.58 158.93 -941.85 157.5 C-943.45 146.51 -942.69 134.92 -939.31 124.34 C-938.65 124.34 -937.99 124.34 -937.31 124.34 C-937.12 123.67 -936.93 123.01 -936.73 122.32 C-934.14 113.55 -934.14 113.55 -932.31 109.34 C-931.32 109.34 -930.33 109.34 -929.31 109.34 C-929.29 108.63 -929.27 107.93 -929.25 107.21 C-928.07 103.59 -926.42 102.41 -923.49 100.09 C-919.99 97.27 -916.75 94.15 -913.45 91.09 C-911.31 89.34 -911.31 89.34 -909.31 89.34 C-909.31 88.68 -909.31 88.02 -909.31 87.34 C-895.19 79.15 -880.84 71.5 -866.2 64.28 C-864.9 63.63 -863.6 62.98 -862.31 62.32 C-854.66 58.44 -847.06 55.53 -838.81 53.21 C-837.9 52.95 -836.99 52.68 -836.05 52.41 C-827.6 50.01 -819.7 49.15 -810.94 49.15 C-810.04 49.14 -809.15 49.12 -808.23 49.11 C-799.92 49.09 -792.72 50.49 -785.06 53.77 C-784.09 54.18 -783.11 54.6 -782.11 55.02 C-779.37 56.31 -776.81 57.63 -774.31 59.34 C-774.31 60 -774.31 60.66 -774.31 61.34 C-773.74 61.6 -773.16 61.85 -772.57 62.12 C-770.13 63.43 -768.31 64.93 -766.25 66.77 C-765.24 67.67 -765.24 67.67 -764.21 68.58 C-763.59 69.16 -762.96 69.74 -762.31 70.34 C-761.74 70.86 -761.16 71.39 -760.57 71.93 C-759.31 73.34 -759.31 73.34 -759.31 75.34 C-758.65 75.34 -757.99 75.34 -757.31 75.34 C-753.31 80.75 -753.31 80.75 -753.31 83.34 C-752.65 83.34 -751.99 83.34 -751.31 83.34 C-745.69 90.19 -741.83 98.6 -737.7 106.39 C-732.22 116.32 -725.94 123.94 -715.31 128.34 C-714.73 128.68 -714.16 129.02 -713.56 129.37 C-710.74 130.58 -708.58 130.58 -705.51 130.58 C-704.34 130.58 -703.17 130.59 -701.97 130.59 C-700.71 130.58 -699.44 130.57 -698.14 130.57 C-696.83 130.57 -695.52 130.57 -694.17 130.57 C-691.39 130.56 -688.61 130.56 -685.83 130.54 C-682.31 130.52 -678.79 130.52 -675.28 130.52 C-662.84 130.52 -650.43 130.52 -638.02 129.58 C-630.02 129.05 -622.01 128.99 -614 128.84 C-611.91 128.79 -609.82 128.75 -607.73 128.71 C-595.98 128.48 -584.22 128.3 -572.47 128.18 C-533.46 127.77 -494.47 126.99 -455.47 125.94 C-451.7 125.84 -447.92 125.74 -444.15 125.64 C-438.17 125.48 -432.19 125.31 -426.2 125.15 C-423.98 125.09 -421.76 125.03 -419.54 124.97 C-416.47 124.88 -413.4 124.8 -410.33 124.71 C-409 124.67 -409 124.67 -407.64 124.64 C-402.82 124.49 -398.08 124.15 -393.29 123.56 C-390.22 123.21 -387.15 123.15 -384.07 123.09 C-382.73 123.06 -381.39 123.03 -380.06 122.99 C-379.38 122.98 -378.69 122.96 -377.99 122.95 C-367.17 122.7 -356.48 122.24 -345.74 120.87 C-340.36 120.19 -334.97 119.76 -329.56 119.34 C-328.52 119.25 -327.48 119.17 -326.41 119.09 C-316.63 118.33 -306.85 117.71 -297.07 117.09 C-289.37 116.58 -281.71 115.91 -274.05 115.02 C-267.13 114.24 -260.21 113.93 -253.25 113.68 C-252.42 113.65 -251.58 113.61 -250.73 113.58 C-249.99 113.56 -249.26 113.53 -248.51 113.51 C-246.27 113.38 -246.27 113.38 -243.92 112.85 C-240.99 112.27 -238.14 112.04 -235.16 111.84 C-233.99 111.75 -232.82 111.67 -231.62 111.59 C-230.4 111.5 -229.19 111.42 -227.94 111.34 C-221.02 110.86 -214.18 110.35 -207.31 109.34 C-203.57 108.97 -199.82 108.68 -196.06 108.4 C-194.41 108.27 -194.41 108.27 -192.72 108.14 C-185.83 107.62 -178.93 107.19 -172.03 106.83 C-170.85 106.77 -170.85 106.77 -169.65 106.71 C-165.76 106.5 -161.86 106.3 -157.97 106.12 C-156.53 106.05 -155.08 105.97 -153.64 105.9 C-152.37 105.84 -151.1 105.78 -149.79 105.71 C-146.36 105.34 -143.55 104.49 -140.31 103.34 C-137.44 103.21 -137.44 103.21 -135.31 103.34 C-135.31 102.68 -135.31 102.02 -135.31 101.34 C-133.19 99.82 -133.19 99.82 -130.31 98.09 C-124.28 94.35 -118.39 90.59 -113.44 85.46 C-112.74 84.76 -112.03 84.06 -111.31 83.34 C-110.65 83.34 -109.99 83.34 -109.31 83.34 C-109.31 82.68 -109.31 82.02 -109.31 81.34 C-107.8 80.01 -106.22 78.75 -104.62 77.52 C-99.89 73.74 -95.53 69.75 -91.25 65.46 C-90.69 64.9 -90.13 64.34 -89.55 63.77 C-87.2 61.39 -85.17 59.13 -83.31 56.34 C-82.65 56.34 -81.99 56.34 -81.31 56.34 C-81.07 55.79 -80.82 55.25 -80.57 54.69 C-79.04 51.82 -77.19 49.32 -75.25 46.71 C-72.56 43.16 -72.56 43.16 -70.31 39.34 C-69.65 39.34 -68.99 39.34 -68.31 39.34 C-68.09 38.63 -67.86 37.93 -67.62 37.21 C-64.85 31.12 -60.1 27.11 -55.08 22.85 C-53.23 21.3 -53.23 21.3 -51.31 19.34 C-50.32 19.34 -49.33 19.34 -48.31 19.34 C-48.31 18.68 -48.31 18.02 -48.31 17.34 C-36.28 6.77 -15.97 0.05 0 0 Z M-88.31 116.34 C-89.7 118.69 -90.58 120.54 -91.44 123.09 C-91.69 123.78 -91.94 124.48 -92.19 125.2 C-94.48 132.03 -95.65 139 -96.77 146.09 C-98.03 154.03 -99.68 161.83 -101.5 169.65 C-101.76 170.78 -102.02 171.92 -102.29 173.08 C-104.17 181.05 -104.17 181.05 -105.31 183.34 C-105.61 185.46 -105.88 187.58 -106.12 189.71 C-107.22 198.56 -108.99 207.25 -110.82 215.97 C-111.28 218.16 -111.71 220.35 -112.13 222.55 C-112.38 223.78 -112.62 225.01 -112.88 226.27 C-113.19 227.86 -113.19 227.86 -113.5 229.49 C-114.39 232.6 -115.28 234.81 -117.31 237.34 C-119.69 237.79 -119.69 237.79 -122.31 237.59 C-125.51 237.38 -127.22 237.31 -130.31 238.34 C-132.57 242.01 -134.04 244.99 -133.31 249.34 C-130.15 251.44 -128.81 251.67 -125.12 251.96 C-124.22 252.04 -123.32 252.11 -122.39 252.19 C-121.36 252.26 -121.36 252.26 -120.31 252.34 C-117.93 257.74 -118.47 261.52 -119.62 267.09 C-119.84 268.24 -119.84 268.24 -120.06 269.41 C-121.13 274.97 -121.13 274.97 -122.31 277.34 C-122.38 280.22 -122.41 283.08 -122.38 285.96 C-122.37 286.76 -122.37 287.56 -122.36 288.39 C-122.35 290.37 -122.33 292.35 -122.31 294.34 C-121.65 294.34 -120.99 294.34 -120.31 294.34 C-120.08 294.95 -119.85 295.56 -119.62 296.19 C-117.93 298.97 -116.44 299.49 -113.44 300.65 C-112.57 301 -111.71 301.34 -110.82 301.7 C-108.13 302.38 -106.85 302.42 -104.31 301.34 C-99.94 294.52 -98.38 286.24 -97.31 278.34 C-97 277.43 -96.69 276.52 -96.37 275.58 C-94.87 270.97 -94.13 266.25 -93.29 261.48 C-92.31 258.34 -92.31 258.34 -90.41 256.43 C-85.63 253.93 -80.85 255.35 -75.94 256.77 C-71.48 258.17 -71.48 258.17 -70.31 259.34 C-70.23 260.75 -70.22 262.17 -70.23 263.59 C-70.24 264.5 -70.24 265.4 -70.25 266.33 C-70.26 267.32 -70.27 268.31 -70.29 269.32 C-70.3 271.39 -70.31 273.46 -70.32 275.53 C-70.35 278.81 -70.37 282.08 -70.41 285.36 C-70.44 288.51 -70.46 291.67 -70.47 294.82 C-70.49 295.8 -70.5 296.77 -70.51 297.78 C-70.54 304.09 -69.87 308.01 -66.31 313.34 C-60.16 316.55 -53.72 316.75 -46.94 316.59 C-46.05 316.58 -45.16 316.58 -44.25 316.57 C-40.63 316.53 -37.77 316.49 -34.31 315.34 C-31.6 307.03 -31.84 298.3 -31.69 289.65 C-31.67 288.79 -31.65 287.92 -31.63 287.03 C-31.22 266.21 -31.14 245.38 -31.08 224.55 C-31.07 220.68 -31.05 216.8 -31.03 212.93 C-31 208.27 -30.99 203.61 -30.99 198.95 C-30.99 197.21 -30.98 195.48 -30.96 193.75 C-30.8 170.73 -35.15 148.68 -48.31 129.34 C-48.97 129.34 -49.63 129.34 -50.31 129.34 C-50.42 128.74 -50.52 128.14 -50.62 127.52 C-51.41 125.02 -52.28 123.96 -54.31 122.34 C-54.97 122.34 -55.63 122.34 -56.31 122.34 C-56.81 120.85 -56.81 120.85 -57.31 119.34 C-57.97 119.34 -58.63 119.34 -59.31 119.34 C-59.81 117.85 -59.81 117.85 -60.31 116.34 C-68.59 111.95 -80.35 110.87 -88.31 116.34 Z M-152.5 128.25 C-160.45 129.87 -168.56 130.55 -176.62 131.4 C-179.07 131.66 -181.52 131.92 -183.97 132.18 C-185.49 132.35 -187 132.51 -188.51 132.66 C-192.16 133.05 -195.72 133.6 -199.31 134.34 C-201.1 134.53 -202.9 134.69 -204.69 134.84 C-205.69 134.92 -206.7 135 -207.73 135.09 C-209.83 135.25 -211.93 135.42 -214.03 135.59 C-215.03 135.67 -216.03 135.75 -217.07 135.84 C-217.98 135.91 -218.89 135.98 -219.83 136.05 C-222.26 136.27 -222.26 136.27 -224.38 136.85 C-226.46 137.37 -228.33 137.49 -230.46 137.55 C-231.63 137.59 -231.63 137.59 -232.82 137.63 C-234.44 137.68 -236.05 137.73 -237.67 137.77 C-242.36 137.95 -245.43 138.41 -249.31 141.34 C-249.05 147.27 -248.64 151.91 -244.31 156.34 C-237.18 159.55 -230.13 159.66 -222.44 159.4 C-220.42 159.34 -218.4 159.29 -216.38 159.25 C-215.5 159.22 -214.62 159.19 -213.72 159.16 C-211.05 159.36 -209.54 159.85 -207.31 161.34 C-203.58 168.4 -203.84 175.55 -203.75 183.4 C-203.55 192.43 -203.2 201.17 -201.79 210.1 C-201.09 214.88 -200.83 219.68 -200.56 224.51 C-200.42 227.41 -200.42 227.41 -199.31 230.34 C-199.11 231.85 -198.95 233.37 -198.81 234.9 C-198.73 235.78 -198.65 236.66 -198.56 237.56 C-198.4 239.41 -198.23 241.26 -198.06 243.11 C-197.98 243.99 -197.9 244.87 -197.81 245.77 C-197.7 246.98 -197.7 246.98 -197.59 248.21 C-197.36 250.52 -197.36 250.52 -196.31 253.34 C-195.98 255.86 -195.68 258.37 -195.41 260.9 C-195.24 262.43 -195.07 263.97 -194.9 265.5 C-194.64 267.91 -194.38 270.31 -194.12 272.72 C-193.23 280.9 -192.28 288.99 -190.7 297.07 C-190.16 300.22 -190.07 303.33 -190 306.52 C-189.56 313.71 -187.67 318 -182.62 323.02 C-179.37 324.87 -176.32 324.77 -172.69 324.71 C-171.67 324.73 -171.67 324.73 -170.62 324.75 C-168.42 324.77 -168.42 324.77 -165.31 324.34 C-163.1 321.01 -163.07 319.96 -163.12 316.09 C-163.13 315.17 -163.14 314.26 -163.14 313.32 C-163.27 310.29 -163.27 310.29 -163.79 307.11 C-164.3 303.41 -164.59 299.76 -164.81 296.04 C-164.87 295.03 -164.87 295.03 -164.94 294 C-165.06 291.86 -165.19 289.72 -165.31 287.59 C-165.48 284.78 -165.64 281.97 -165.81 279.16 C-165.85 278.48 -165.89 277.8 -165.94 277.09 C-166.17 273.3 -166.48 269.53 -166.88 265.76 C-167.47 259.63 -167.31 253.53 -167.22 247.38 C-167.06 236.58 -167.35 226.12 -168.81 215.4 C-171.29 197.16 -170.57 178.7 -170.31 160.34 C-167.01 158.37 -164.44 158.06 -160.62 157.99 C-158.96 157.95 -158.96 157.95 -157.26 157.9 C-156.1 157.88 -154.94 157.86 -153.75 157.84 C-139.56 157.93 -139.56 157.93 -126.31 153.65 C-120.7 147.16 -120.36 139.66 -120.31 131.34 C-120.58 129.08 -120.58 129.08 -121.31 127.34 C-129.26 123.36 -143.93 126.37 -152.5 128.25 Z M-344.5 144.63 C-346.31 145.34 -346.31 145.34 -349.06 146.09 C-352.87 148.2 -354.64 152.07 -355.85 156.18 C-357.58 164.32 -356.06 173.44 -355.44 181.65 C-355.36 182.78 -355.28 183.92 -355.2 185.08 C-354.69 191.92 -353.85 198.63 -352.75 205.4 C-352.18 209.21 -351.97 212.92 -351.81 216.77 C-351.51 223.05 -350.87 229.17 -349.91 235.38 C-349.16 240.32 -348.52 245.26 -347.88 250.21 C-347.75 251.18 -347.62 252.15 -347.49 253.15 C-346.81 258.39 -346.15 263.63 -345.52 268.87 C-345.39 269.94 -345.26 271.01 -345.13 272.12 C-344.88 274.17 -344.64 276.22 -344.4 278.27 C-343.83 282.99 -343.06 287.45 -341.81 292.05 C-341.16 295.05 -340.81 298.05 -340.45 301.1 C-340.23 302.93 -340.23 302.93 -340.01 304.8 C-339.71 307.34 -339.43 309.88 -339.16 312.42 C-338.42 319.43 -338.42 319.43 -334.71 325.17 C-330.52 326.61 -327.02 326.86 -322.62 326.71 C-321.87 326.71 -321.11 326.71 -320.33 326.71 C-316.49 326.65 -314.56 326.5 -311.31 324.34 C-310.02 320.47 -310.12 316.8 -310.12 312.77 C-310.12 311.93 -310.12 311.09 -310.12 310.22 C-310.18 303.69 -310.77 297.33 -311.6 290.87 C-312.48 283.67 -312.5 276.58 -312.31 269.34 C-309.13 268.71 -306.2 268.34 -302.95 268.35 C-283.48 268.28 -265.82 260.14 -251.8 246.91 C-243.14 237.93 -239.34 227.75 -239.31 215.34 C-240.13 191.2 -249.48 162.3 -266.31 144.34 C-269.69 141.46 -271.46 140.43 -275.88 139.96 C-280.55 140.47 -283.43 141.74 -287.31 144.34 C-287.31 145 -287.31 145.66 -287.31 146.34 C-288.3 146.67 -289.29 147 -290.31 147.34 C-290.31 148 -290.31 148.66 -290.31 149.34 C-291.3 149.67 -292.29 150 -293.31 150.34 C-293.31 151 -293.31 151.66 -293.31 152.34 C-293.97 152.34 -294.63 152.34 -295.31 152.34 C-301.67 159.81 -307.53 167.84 -310.31 177.34 C-312.79 177.83 -312.79 177.83 -315.31 178.34 C-315.32 177.5 -315.32 176.66 -315.32 175.8 C-315.35 172.66 -315.4 169.52 -315.47 166.39 C-315.5 164.37 -315.51 162.36 -315.52 160.35 C-315.67 153.59 -315.95 148.33 -319.83 142.67 C-322.27 140.47 -324.78 140.23 -327.98 140.16 C-333.81 140.61 -339.1 142.48 -344.5 144.63 Z M-425.31 149.34 C-426.04 149.53 -426.76 149.73 -427.51 149.93 C-432.77 151.73 -436.17 155.94 -439.31 160.34 C-439.64 161.33 -439.97 162.32 -440.31 163.34 C-443.49 165.39 -447.07 166.16 -450.69 167.15 C-458.72 169.62 -462.21 172.12 -466.44 179.52 C-468.66 183.84 -470.61 188.2 -472.32 192.74 C-472.94 194.36 -473.59 195.98 -474.28 197.58 C-477.05 204.08 -478.65 210.54 -480 217.46 C-480.21 218.49 -480.42 219.53 -480.64 220.59 C-484.15 237.97 -484.87 255.08 -480.31 272.34 C-479.86 274.05 -479.86 274.05 -479.4 275.8 C-475.61 289.02 -468.76 303.15 -459.31 313.34 C-458.65 313.34 -457.99 313.34 -457.31 313.34 C-456.98 314.33 -456.65 315.32 -456.31 316.34 C-448.84 322.44 -441.7 324.93 -432.06 324.9 C-430.82 324.89 -430.82 324.89 -429.55 324.89 C-419.79 324.6 -411.94 320.59 -404.84 313.97 C-397.47 306.12 -397.47 306.12 -394.31 296.34 C-393.65 296.34 -392.99 296.34 -392.31 296.34 C-385.18 274.26 -381.26 253.5 -380.19 230.34 C-380.13 229.03 -380.13 229.03 -380.06 227.7 C-379.46 214.81 -379.09 201.92 -379.01 189.01 C-379.01 187.29 -378.99 185.57 -378.97 183.84 C-378.71 168.9 -378.71 168.9 -384.31 155.34 C-384.97 155.34 -385.63 155.34 -386.31 155.34 C-386.31 154.68 -386.31 154.02 -386.31 153.34 C-399.26 145.56 -410.84 145.31 -425.31 149.34 Z M-547.31 168.34 C-549.89 168.99 -552.47 169.61 -555.06 170.21 C-560.42 171.49 -565.32 172.98 -570.29 175.39 C-575.56 177.86 -580.46 179.54 -586.31 179.34 C-586.49 178.64 -586.68 177.94 -586.86 177.22 C-587.11 176.31 -587.37 175.4 -587.62 174.46 C-587.87 173.56 -588.11 172.65 -588.36 171.72 C-589.18 169.01 -589.18 169.01 -592.31 167.34 C-595 167.14 -597.56 167.05 -600.25 167.09 C-601.01 167.09 -601.77 167.1 -602.55 167.1 C-610.87 167.25 -619.3 167.41 -626.31 172.34 C-628.74 175.97 -628.71 178.09 -628.98 182.43 C-629.02 183.14 -629.07 183.85 -629.11 184.58 C-629.2 186.09 -629.29 187.59 -629.37 189.1 C-629.5 191.34 -629.64 193.58 -629.79 195.81 C-630.34 204.89 -630.2 213.76 -629.59 222.83 C-629.29 227.32 -629.16 231.81 -629.07 236.32 C-629.05 237.06 -629.03 237.81 -629.02 238.58 C-628.99 240.1 -628.95 241.63 -628.92 243.16 C-628.6 258.64 -627.88 274.03 -626.78 289.47 C-626.47 293.79 -626.22 298.09 -626.07 302.42 C-626.03 303.33 -626 304.25 -625.96 305.19 C-625.91 306.83 -625.86 308.47 -625.83 310.1 C-625.64 315.4 -624.55 319.5 -622.31 324.34 C-617.1 327.67 -611.61 327.7 -605.56 327.9 C-604.82 327.94 -604.07 327.98 -603.3 328.02 C-600.85 328.09 -600.85 328.09 -597.31 327.34 C-593.08 322.54 -592.75 318.72 -592.81 312.65 C-592.8 311.78 -592.79 310.91 -592.78 310.02 C-592.77 308.13 -592.76 306.23 -592.76 304.33 C-592.75 299.12 -592.66 293.9 -592.58 288.68 C-592.56 287.56 -592.55 286.44 -592.53 285.28 C-592.31 271.83 -591.79 258.39 -591.18 244.95 C-591.06 242.17 -590.94 239.39 -590.84 236.61 C-590.69 232.68 -590.51 228.76 -590.32 224.83 C-590.28 223.66 -590.24 222.48 -590.2 221.27 C-589.87 214.99 -589.34 211.21 -585.31 206.34 C-585.31 205.68 -585.31 205.02 -585.31 204.34 C-583.31 203.34 -581.31 202.34 -579.31 201.34 C-579.31 200.68 -579.31 200.02 -579.31 199.34 C-578.65 199.13 -577.99 198.92 -577.31 198.71 C-573.88 197.14 -571.22 195.11 -568.28 192.77 C-566.36 191.37 -564.46 190.33 -562.31 189.34 C-562.31 188.68 -562.31 188.02 -562.31 187.34 C-561.73 187.21 -561.15 187.09 -560.55 186.96 C-558.31 186.34 -556.54 185.5 -554.5 184.4 C-546.8 180.52 -538.91 179.05 -530.31 180.34 C-526.41 182.76 -524.62 184.99 -523.06 189.27 C-522.75 190.11 -522.43 190.94 -522.11 191.8 C-516.68 209.08 -522.21 229.39 -526.8 246.38 C-527.33 248.41 -527.83 250.45 -528.32 252.5 C-530.18 260.31 -532.33 267.86 -535.31 275.34 C-535.68 276.31 -536.05 277.28 -536.43 278.29 C-541.24 290.55 -547.97 301.12 -558.31 309.34 C-558.31 310 -558.31 310.66 -558.31 311.34 C-559.46 311.77 -559.46 311.77 -560.62 312.21 C-563.46 313.3 -563.46 313.3 -566.31 315.34 C-566.31 316 -566.31 316.66 -566.31 317.34 C-566.84 317.57 -567.37 317.81 -567.92 318.05 C-570.41 319.39 -572.62 320.97 -574.88 322.66 C-584.82 330.06 -595.48 336.47 -607.31 340.34 C-608.3 340.67 -609.29 341 -610.31 341.34 C-612.88 341.56 -615.43 341.75 -618 341.9 C-619.05 341.96 -619.05 341.96 -620.13 342.03 C-621.86 342.14 -623.58 342.24 -625.31 342.34 C-626.27 346.61 -626.27 346.61 -625.38 350.77 C-619.73 357.78 -613.77 361.47 -605.31 364.34 C-604.36 364.75 -603.41 365.16 -602.44 365.59 C-596.13 367.1 -590.17 367.71 -584.2 364.84 C-581.47 363.1 -578.88 361.29 -576.31 359.34 C-575.32 358.68 -574.33 358.02 -573.31 357.34 C-573.31 356.68 -573.31 356.02 -573.31 355.34 C-572.55 355.05 -571.79 354.76 -571 354.46 C-568.16 353.37 -568.16 353.37 -565.31 351.34 C-565.31 350.68 -565.31 350.02 -565.31 349.34 C-563.31 348.34 -561.31 347.34 -559.31 346.34 C-559.31 345.68 -559.31 345.02 -559.31 344.34 C-558.76 344.08 -558.21 343.82 -557.64 343.55 C-554.97 342.16 -552.54 340.55 -550.06 338.84 C-549.17 338.23 -548.28 337.62 -547.36 336.99 C-546.35 336.17 -546.35 336.17 -545.31 335.34 C-545.31 334.68 -545.31 334.02 -545.31 333.34 C-544.22 332.95 -544.22 332.95 -543.11 332.55 C-540.19 331.28 -538 329.8 -535.5 327.84 C-534.71 327.23 -533.92 326.62 -533.11 325.99 C-532.51 325.45 -531.92 324.9 -531.31 324.34 C-531.31 323.68 -531.31 323.02 -531.31 322.34 C-530.5 322 -530.5 322 -529.68 321.66 C-526.57 319.92 -524.09 317.63 -521.5 315.21 C-520.97 314.72 -520.43 314.22 -519.89 313.71 C-506.94 301.55 -499 288.94 -496.31 271.34 C-496.14 270.24 -496.14 270.24 -495.97 269.13 C-493.93 255.9 -492.36 242.67 -491.31 229.34 C-491.24 228.51 -491.17 227.68 -491.1 226.82 C-490.2 215.73 -490.3 204.82 -491 193.71 C-491.07 192.55 -491.13 191.39 -491.2 190.19 C-491.84 181.57 -493.46 173.62 -498.31 166.34 C-510.85 159.06 -534.47 162.9 -547.31 168.34 Z M-715.31 172.34 C-715.31 173 -715.31 173.66 -715.31 174.34 C-715.97 174.34 -716.63 174.34 -717.31 174.34 C-720.02 182.86 -721.17 191.2 -721.94 200.09 C-722 200.77 -722.06 201.45 -722.13 202.16 C-723.31 215.27 -723.81 228.35 -724.1 241.51 C-724.23 246.67 -724.57 251.78 -725.04 256.92 C-725.66 264.63 -725.98 272.36 -726.38 280.09 C-726.47 281.86 -726.56 283.64 -726.65 285.41 C-726.87 289.72 -727.09 294.03 -727.31 298.34 C-730.13 299.81 -732.13 300.55 -735.31 300.71 C-738.28 301.03 -739.24 301.28 -741.75 303.09 C-743.58 305.72 -744.39 307.11 -744.31 310.34 C-742.59 313.31 -742.59 313.31 -739.31 315.34 C-736.68 315.79 -734.18 315.96 -731.52 316 C-730.79 316.11 -730.06 316.22 -729.31 316.34 C-726.79 320.11 -727.09 323.04 -727.19 327.4 C-727.2 328.19 -727.2 328.97 -727.21 329.79 C-727.24 333.16 -727.3 336.52 -727.35 339.89 C-727.39 342.35 -727.41 344.81 -727.44 347.27 C-727.45 348.04 -727.47 348.8 -727.49 349.58 C-727.52 353.4 -727.48 355.08 -725.31 358.34 C-724.65 358.34 -723.99 358.34 -723.31 358.34 C-723.31 359 -723.31 359.66 -723.31 360.34 C-718.03 362.98 -714.24 364.13 -708.31 363.34 C-705.47 359.73 -704.89 356.73 -704.65 352.21 C-704.58 351.04 -704.51 349.86 -704.44 348.65 C-704.38 347.41 -704.31 346.17 -704.25 344.9 C-704.1 342.37 -703.94 339.84 -703.78 337.32 C-703.7 336.11 -703.62 334.9 -703.55 333.66 C-702.4 317.43 -702.4 317.43 -699.31 314.34 C-695.6 313.32 -692.02 313.17 -688.19 313.15 C-687.15 313.13 -686.12 313.12 -685.05 313.11 C-682.31 313.34 -682.31 313.34 -679.31 315.34 C-678.61 318.27 -678.1 321.05 -677.69 324.02 C-677.5 325.3 -677.5 325.3 -677.3 326.61 C-676.39 333.03 -675.91 339.41 -675.55 345.89 C-674.83 357.48 -674.83 357.48 -669.31 367.34 C-663.4 371.28 -654.39 369.83 -647.54 368.73 C-641.1 367.33 -641.1 367.33 -635.31 364.34 C-634.26 357.36 -635.52 350.24 -636.8 343.38 C-637.51 339.18 -637.79 334.98 -638.07 330.73 C-638.17 328.32 -638.17 328.32 -639.31 326.34 C-639.64 323.38 -639.93 320.43 -640.19 317.46 C-640.84 310.48 -641.66 303.57 -642.75 296.65 C-643.95 288.98 -644.96 281.3 -645.88 273.59 C-646 272.52 -646.13 271.46 -646.26 270.37 C-646.71 266.51 -647.16 262.66 -647.61 258.8 C-647.86 256.62 -648.12 254.45 -648.38 252.27 C-648.51 251.11 -648.65 249.94 -648.79 248.74 C-649.28 245.53 -649.97 242.48 -650.79 239.35 C-651.29 237.42 -651.75 235.48 -652.21 233.55 C-655.88 218.19 -661.23 204.89 -669.31 191.34 C-669.97 191.34 -670.63 191.34 -671.31 191.34 C-672.31 189.34 -673.31 187.34 -674.31 185.34 C-674.97 185.34 -675.63 185.34 -676.31 185.34 C-676.66 184.49 -676.66 184.49 -677.02 183.62 C-680.21 177.98 -686.01 173.35 -691.88 170.77 C-700.03 169.74 -707.28 170.65 -715.31 172.34 Z M156.69 307.34 C157.69 311.34 157.69 311.34 157.69 311.34 Z M156.69 312.34 C157.69 314.34 157.69 314.34 157.69 314.34 Z M156.69 316.34 C157.69 319.34 157.69 319.34 157.69 319.34 Z M-789.31 462.34 C-789.31 462.67 -789.31 463 -789.31 463.34 C-786.67 463.34 -784.03 463.34 -781.31 463.34 C-781.31 463.01 -781.31 462.68 -781.31 462.34 C-783.95 462.34 -786.59 462.34 -789.31 462.34 Z " fill="#000002" transform="translate(1031.3125,401.6640625)"/>
<path d="M0 0 C3.56 2.95 4.54 7.51 5.15 11.93 C5.29 13.53 5.41 15.12 5.5 16.71 C5.78 19.69 5.78 19.69 6.68 23.27 C8.17 29.76 9.08 36.35 10.04 42.94 C10.37 45.17 10.71 47.39 11.04 49.62 C12.06 56.44 12.92 63.19 13.34 70.08 C13.65 75.18 14.46 79.59 15.81 84.5 C16.38 87.8 16.81 91.12 17.25 94.44 C18.35 102.49 19.65 110.46 21.16 118.45 C21.71 121.53 22 124.58 22.25 127.7 C22.78 133.97 23.97 140.04 25.25 146.19 C25.47 147.26 25.68 148.34 25.91 149.45 C26.83 153.97 27.78 158.47 28.94 162.93 C29.69 165.99 30.12 168.75 30.31 171.88 C30.66 176.38 31.39 180.66 32.34 185.07 C32.82 187.56 33.12 190.03 33.38 192.56 C33.37 196.27 33.37 196.27 34.81 197.5 C35.25 199.86 35.58 202.12 35.81 204.5 C35.89 205.26 35.97 206.01 36.05 206.79 C36.1 207.56 36.14 208.33 36.19 209.12 C36.24 209.84 36.29 210.55 36.34 211.29 C35.5 214.84 33.6 216.2 30.81 218.5 C21.08 224.17 9.19 229.15 -2.19 226.5 C-7.09 223.58 -9.1 219.57 -11.56 214.62 C-11.95 213.87 -12.34 213.11 -12.74 212.33 C-14.52 208.86 -16.26 205.37 -17.97 201.87 C-21.52 194.64 -25.35 187.74 -29.48 180.83 C-32.84 175.2 -35.8 169.45 -38.68 163.56 C-41.25 158.33 -44.14 153.3 -47.06 148.26 C-50.88 141.66 -54.47 135.02 -57.82 128.17 C-59.35 125.18 -61.06 122.4 -62.89 119.59 C-65.53 115.35 -67.83 110.91 -70.19 106.5 C-70.31 111.16 -69.96 115.22 -68.88 119.75 C-67.58 125.46 -66.56 131.15 -65.69 136.94 C-63.72 149.73 -61.17 162.14 -57.37 174.53 C-55.34 181.24 -53.89 187.78 -53.12 194.75 C-52.68 198.73 -52.2 202.62 -51.19 206.5 C-50.81 212.32 -51.14 216.33 -54.19 221.5 C-59.27 224.87 -63.74 224.96 -69.62 224.88 C-70.45 224.89 -71.27 224.9 -72.11 224.91 C-77.54 224.88 -81.42 224.14 -86.19 221.5 C-87.68 219.89 -87.68 219.89 -88.5 218.19 C-88.78 217.63 -89.07 217.08 -89.36 216.51 C-91.78 210.61 -93.03 204.68 -94.19 198.44 C-94.44 197.14 -94.44 197.14 -94.69 195.81 C-96.02 188.73 -97.13 181.63 -98.19 174.5 C-98.29 173.84 -98.38 173.18 -98.49 172.5 C-99.14 168.09 -99.78 163.69 -100.42 159.28 C-100.64 157.76 -100.86 156.24 -101.09 154.72 C-102.35 146.13 -103.46 137.61 -103.96 128.92 C-104.04 126.49 -104.04 126.49 -105.19 124.5 C-105.59 121.73 -105.95 118.97 -106.27 116.19 C-106.38 115.35 -106.48 114.5 -106.58 113.64 C-107.02 110.04 -107.45 106.44 -107.88 102.84 C-109.02 93.32 -110.22 83.83 -111.79 74.38 C-111.91 73.62 -112.04 72.87 -112.17 72.1 C-112.67 69.13 -113.24 66.35 -114.19 63.5 C-114.49 60.28 -114.51 57.05 -114.56 53.81 C-114.6 52.94 -114.64 52.07 -114.68 51.17 C-114.76 44.75 -113.41 40.41 -109.19 35.5 C-103.47 31.6 -95.08 29.68 -88.19 30.5 C-86.15 32.07 -85.3 33.05 -84.67 35.56 C-84.57 36.34 -84.47 37.13 -84.38 37.94 C-81.87 51.92 -71.68 65.51 -63.77 77.14 C-58.55 84.9 -53.57 92.82 -48.62 100.75 C-47.96 101.81 -47.3 102.86 -46.62 103.95 C-45.19 106.5 -45.19 106.5 -45.19 108.5 C-44.53 108.5 -43.87 108.5 -43.19 108.5 C-41.55 110.76 -40.04 113.01 -38.56 115.38 C-38.14 116.03 -37.72 116.68 -37.29 117.35 C-34.19 122.23 -34.19 122.23 -34.19 124.5 C-33.53 124.5 -32.87 124.5 -32.19 124.5 C-30.56 126.43 -29.05 128.34 -27.56 130.38 C-27.14 130.93 -26.72 131.49 -26.29 132.06 C-23.19 136.24 -23.19 136.24 -23.19 138.5 C-22.2 138.83 -21.21 139.16 -20.19 139.5 C-20.19 140.16 -20.19 140.82 -20.19 141.5 C-19.53 141.5 -18.87 141.5 -18.19 141.5 C-16.48 143.13 -14.81 144.79 -13.19 146.5 C-13.52 145.51 -13.85 144.52 -14.19 143.5 C-15.67 134.26 -16.46 125.02 -16.76 115.68 C-16.94 111.05 -17.44 106.55 -18.12 101.97 C-19.22 94.59 -19.93 87.22 -20.57 79.8 C-20.75 77.63 -20.94 75.47 -21.13 73.31 C-21.87 64.86 -22.46 56.42 -22.92 47.95 C-23.16 44.83 -23.61 41.88 -24.25 38.81 C-25.27 33.11 -25.51 27.47 -25.62 21.69 C-25.68 20.34 -25.68 20.34 -25.73 18.97 C-25.76 13.62 -25.12 10.07 -21.66 5.89 C-19.4 3.76 -17.13 2.66 -14.25 1.56 C-13.25 1.16 -12.25 0.76 -11.22 0.35 C-7.34 -0.74 -3.94 -0.9 0 0 Z M-73.19 100.5 C-72.19 104.5 -72.19 104.5 -72.19 104.5 Z " fill="#000002" transform="translate(580.1875,109.5)"/>
<path d="M0 0 C4.15 -0.15 8.29 -0.23 12.44 -0.31 C13.6 -0.35 14.77 -0.4 15.97 -0.44 C23.64 -0.55 28.74 0.46 35 5 C35 5.66 35 6.32 35 7 C35.59 7.07 36.17 7.14 36.77 7.21 C39.87 8.31 40.8 9.99 42.62 12.69 C43.51 13.96 43.51 13.96 44.41 15.26 C47.16 20 48.24 24.53 48.6 29.96 C48.68 31.1 48.76 32.23 48.84 33.39 C48.91 34.56 48.99 35.73 49.06 36.94 C49.18 38.64 49.18 38.64 49.3 40.38 C49.46 42.73 49.61 45.08 49.76 47.43 C49.92 49.73 50.08 52.03 50.27 54.32 C51.25 66.74 51.2 79.17 51.19 91.62 C51.19 92.8 51.19 93.98 51.19 95.19 C51.17 112.87 50.92 130.41 49 148 C48.9 148.92 48.81 149.85 48.71 150.8 C46.88 167.42 42.95 183.7 34 198 C33.57 198.76 33.13 199.52 32.69 200.3 C30.26 204.45 27.94 207.14 24 210 C23.17 210.85 22.35 211.69 21.5 212.56 C15.11 218.79 7.42 221.15 -1.38 221.44 C-13.6 221.1 -22.16 215.95 -30.56 207.39 C-37 200.43 -37 200.43 -37 198 C-37.66 198 -38.32 198 -39 198 C-41.04 195.09 -42 193.6 -42 190 C-42.66 190 -43.32 190 -44 190 C-53.42 171 -53.42 171 -56.25 160.66 C-56.93 158.04 -56.93 158.04 -57.95 155.78 C-62.41 143.99 -62.54 131.13 -62.44 118.69 C-62.43 117.86 -62.43 117.04 -62.43 116.19 C-62.28 88.69 -58.3 61.26 -44.75 36.94 C-44.23 36 -43.71 35.06 -43.17 34.09 C-42.79 33.4 -42.4 32.71 -42 32 C-41.34 32 -40.68 32 -40 32 C-39.67 31.01 -39.34 30.02 -39 29 C-35.38 27.19 -32.58 26.08 -28.56 25.5 C-22.85 23.09 -20.4 18.01 -17 13 C-13 8.11 -7.91 5.48 -2.45 2.45 C-1.64 1.97 -0.83 1.49 0 1 C0 0.67 0 0.34 0 0 Z M19 52 C18.53 53.84 18.53 53.84 18.05 55.73 C17.62 57.36 17.18 58.99 16.75 60.62 C16.55 61.43 16.34 62.24 16.13 63.07 C14.3 69.9 11.6 75.42 6 80 C1.32 81.38 -3.48 81.11 -8.31 81.06 C-9.15 81.06 -9.98 81.05 -10.85 81.05 C-12.9 81.04 -14.95 81.02 -17 81 C-23.71 100.04 -29.12 125.53 -22 145 C-21.68 146.45 -21.38 147.91 -21.12 149.38 C-17.32 170.88 -17.32 170.88 -6 189 C-3.13 189.58 -3.13 189.58 0 189 C8.73 182.24 13.62 171.05 16.5 160.69 C16.9 159.25 17.31 157.82 17.72 156.39 C17.91 155.7 18.11 155.02 18.31 154.32 C18.96 152.12 19.71 149.97 20.48 147.81 C22.03 143.15 22.96 138.54 23.66 133.68 C23.85 132.39 23.85 132.39 24.05 131.07 C25.31 121.73 25.46 112.47 25.38 103.06 C25.37 102.19 25.37 101.31 25.37 100.41 C25.31 84.46 24.16 68.81 22 53 C21.01 52.67 20.02 52.34 19 52 Z " fill="#000002" transform="translate(684,107)"/>
<path d="M0 0 C4.57 -0.14 8.46 0.03 12.63 2.12 C15.7 6.14 16.05 9.34 16.18 14.33 C16.2 15.04 16.22 15.75 16.24 16.48 C16.3 18.82 16.34 21.15 16.38 23.49 C16.41 25.13 16.45 26.76 16.49 28.4 C16.72 40.81 16.57 53.21 16.25 65.62 C16.23 66.46 16.21 67.31 16.19 68.18 C16.13 70.59 16.06 72.99 15.98 75.4 C15.96 76.11 15.94 76.82 15.92 77.55 C15.83 80.24 15.69 82.81 15.12 85.45 C14.56 88.48 14.5 91.31 14.49 94.39 C14.48 95.63 14.47 96.88 14.47 98.16 C14.46 98.82 14.46 99.48 14.46 100.16 C14.45 102.24 14.44 104.31 14.42 106.39 C14.37 112.29 14.32 118.2 14.3 124.1 C14.29 127.72 14.26 131.33 14.22 134.95 C14.21 136.32 14.2 137.7 14.21 139.07 C14.21 141 14.18 142.92 14.16 144.85 C14.15 146.49 14.15 146.49 14.14 148.16 C13.39 152.49 11.02 154.77 7.94 157.74 C2.82 160.79 -3.39 163.05 -9.37 162.12 C-12.58 160.67 -14.71 159.47 -16.29 156.24 C-18.24 150.51 -18.78 145.46 -18.62 139.43 C-18.62 138.61 -18.61 137.8 -18.61 136.96 C-18.56 133.64 -18.44 130.52 -17.88 127.24 C-17.36 124.05 -17.16 120.98 -17.05 117.75 C-17.01 116.54 -16.97 115.33 -16.93 114.09 C-16.89 112.82 -16.85 111.55 -16.81 110.24 C-16.77 108.95 -16.72 107.65 -16.68 106.32 C-16.4 97.25 -16.24 88.19 -16.37 79.12 C-16.51 79.98 -16.64 80.85 -16.78 81.74 C-19.01 94.8 -22.65 107.42 -26.37 120.12 C-26.64 121.04 -26.91 121.97 -27.19 122.93 C-28.4 127.06 -29.61 131.12 -31.37 135.05 C-31.68 135.76 -31.99 136.48 -32.31 137.21 C-34.04 140.31 -35.53 141.85 -38.93 142.93 C-46.23 143.33 -52.69 141.87 -58.37 137.12 C-64.25 130.83 -66.81 124.15 -69.37 116.12 C-69.93 114.43 -70.49 112.74 -71.06 111.05 C-71.5 109.74 -71.93 108.43 -72.37 107.12 C-77.04 115.04 -75.48 127.07 -75.56 136.05 C-75.57 136.94 -75.58 137.83 -75.6 138.74 C-75.6 143.92 -74.96 148.14 -73.37 153.12 C-72.84 157.13 -72.43 160.77 -74.81 164.18 C-78.63 165.58 -82.35 165.52 -86.37 165.12 C-87.03 164.79 -87.69 164.46 -88.37 164.12 C-88.37 163.46 -88.37 162.8 -88.37 162.12 C-89.36 161.79 -90.35 161.46 -91.37 161.12 C-91.37 160.46 -91.37 159.8 -91.37 159.12 C-92.03 159.12 -92.69 159.12 -93.37 159.12 C-94 157.91 -94.63 156.7 -95.25 155.49 C-95.59 154.82 -95.94 154.15 -96.3 153.45 C-98.96 147.65 -99.79 142.48 -100.06 136.18 C-100.1 135.34 -100.14 134.5 -100.17 133.63 C-100.67 120.7 -101.32 101.01 -95.37 89.12 C-95.07 86.79 -94.81 84.45 -94.56 82.12 C-93.87 75.94 -92.72 70.02 -91.25 63.99 C-89.51 56.64 -87.64 48.6 -89.37 41.12 C-91.02 40.1 -92.69 39.09 -94.37 38.12 C-94.68 35.43 -94.68 35.43 -94.37 33.12 C-77.43 25.22 -77.43 25.22 -70.37 26.12 C-66.02 28.89 -64.93 32 -63.68 36.8 C-63.22 38.9 -62.79 41.01 -62.37 43.12 C-62.21 43.91 -62.05 44.71 -61.89 45.52 C-61.58 47.09 -61.27 48.65 -60.97 50.22 C-60.18 54.06 -59.28 57.87 -58.37 61.68 C-58.11 62.79 -58.11 62.79 -57.84 63.93 C-57.5 65.36 -57.16 66.8 -56.82 68.23 C-55.77 72.66 -54.75 77.09 -53.91 81.56 C-52.84 87.29 -51.3 92.62 -49.37 98.12 C-48.66 100.26 -47.95 102.41 -47.25 104.55 C-45.99 108.41 -45.99 108.41 -44.37 112.12 C-39.6 102.53 -36.86 93.3 -35.5 82.68 C-34.66 76.29 -33.3 70.08 -31.81 63.8 C-31.48 62.4 -31.48 62.4 -31.14 60.96 C-29.5 54.25 -29.5 54.25 -28.37 53.12 C-27.89 51.17 -27.46 49.21 -27.06 47.24 C-26.79 45.98 -26.52 44.71 -26.25 43.41 C-25.63 40.43 -25.04 37.44 -24.46 34.45 C-19.16 7.6 -19.16 7.6 -11.37 1.12 C-9.23 0.41 -9.23 0.41 -7.12 0.3 C-6.35 0.26 -5.57 0.22 -4.77 0.17 C-3.18 0.14 -1.59 0.08 0 0 Z M-14.37 66.12 C-14.37 67.77 -14.37 69.42 -14.37 71.12 C-14.04 71.12 -13.71 71.12 -13.37 71.12 C-13.37 69.47 -13.37 67.82 -13.37 66.12 C-13.7 66.12 -14.03 66.12 -14.37 66.12 Z " fill="#000002" transform="translate(571.37109375,355.8828125)"/>
<path d="M0 0 C6.02 3.4 7.74 7.9 9.7 14.33 C11.61 21.42 12.56 28.3 12.88 35.62 C12.92 36.56 12.96 37.5 13 38.47 C13.26 50.1 11.18 58.57 3.31 67.38 C1.88 68.62 1.88 68.62 -0.12 68.62 C-0.12 69.28 -0.12 69.94 -0.12 70.62 C-1.77 70.95 -3.43 71.28 -5.12 71.62 C-5.12 72.28 -5.12 72.94 -5.12 73.62 C-8.77 75.45 -11.15 76.62 -15.25 76.62 C-20.27 74.88 -22.44 71.96 -24.81 67.31 C-26.4 62.62 -26.82 57.75 -27.35 52.85 C-28.09 46.31 -29.49 40 -31.12 33.62 C-31.46 32.29 -31.79 30.96 -32.12 29.62 C-35.95 30.73 -38.59 31.51 -41.12 34.62 C-50.43 57.73 -43.22 84.56 -34.31 106.68 C-33.17 109.51 -32.14 112.37 -31.12 115.25 C-29.43 119.95 -27.45 124.47 -25.34 129 C-24.24 131.38 -23.21 133.78 -22.19 136.19 C-20.29 140.51 -17.9 144.46 -15.39 148.46 C-14.12 150.62 -14.12 150.62 -13.12 153.62 C-12.47 153.62 -11.81 153.62 -11.12 153.62 C-11.12 154.28 -11.12 154.94 -11.12 155.62 C-8.81 155.62 -6.5 155.62 -4.12 155.62 C-4.35 149.21 -4.98 143.49 -7.19 137.44 C-9.49 131 -10.31 125.88 -7.94 119.38 C-4.88 114.73 -1.69 110.92 3.88 109.62 C10.1 109.83 14.5 111.55 19.88 114.62 C19.88 115.28 19.88 115.94 19.88 116.62 C21.36 117.12 21.36 117.12 22.88 117.62 C26.15 121.69 26.38 125.59 26.31 130.62 C26.3 131.38 26.29 132.13 26.29 132.9 C25.91 145.26 21.27 155.84 13.88 165.62 C13.22 165.62 12.56 165.62 11.88 165.62 C11.55 166.62 11.22 167.61 10.88 168.62 C3.53 175.51 -5.64 179.04 -15.56 179.94 C-26.61 178.97 -33.65 173.29 -41.37 165.75 C-43.12 163.62 -43.12 163.62 -43.12 160.62 C-43.78 160.62 -44.44 160.62 -45.12 160.62 C-45.45 159.31 -45.78 157.99 -46.12 156.62 C-46.78 156.62 -47.44 156.62 -48.12 156.62 C-50.44 151.71 -52.76 146.79 -55.07 141.87 C-56 139.88 -56.94 137.9 -57.89 135.92 C-58.4 134.83 -58.91 133.74 -59.44 132.62 C-59.89 131.68 -60.34 130.73 -60.8 129.75 C-62.48 125.78 -63.79 121.73 -65.12 117.62 C-65.63 116.12 -66.15 114.62 -66.66 113.12 C-67.17 111.62 -67.68 110.12 -68.19 108.62 C-68.44 107.88 -68.7 107.14 -68.96 106.38 C-70.48 101.89 -71.68 97.44 -72.66 92.82 C-73.39 89.38 -74.26 85.97 -75.12 82.56 C-76.12 78.59 -76.12 78.59 -76.62 76.61 C-76.96 75.28 -77.31 73.95 -77.68 72.63 C-80.17 63.47 -81.11 52.22 -76.45 43.63 C-71.63 36.32 -66.18 29.9 -59.12 24.62 C-58.46 24.62 -57.81 24.62 -57.12 24.62 C-57.12 23.96 -57.12 23.31 -57.12 22.62 C-55.5 21.56 -53.82 20.58 -52.12 19.62 C-49.85 18.17 -47.58 16.72 -45.31 15.25 C-44.07 14.45 -42.82 13.65 -41.57 12.84 C-40.98 12.46 -40.38 12.08 -39.77 11.68 C-37.73 10.37 -35.68 9.05 -33.62 7.75 C-32.81 7.23 -32.81 7.23 -31.97 6.7 C-27.27 3.97 -22.64 2.04 -17.44 0.5 C-15.76 0 -15.76 0 -14.05 -0.51 C-13.09 -0.79 -12.12 -1.08 -11.12 -1.38 C-6.73 -2.84 -4.18 -1.84 0 0 Z " fill="#000002" transform="translate(358.125,340.375)"/>
<path d="M0 0 C4.43 -0.1 8.86 -0.17 13.29 -0.22 C14.79 -0.24 16.3 -0.27 17.8 -0.3 C19.97 -0.35 22.14 -0.37 24.32 -0.39 C25.62 -0.41 26.92 -0.43 28.27 -0.45 C33.69 0.21 38.53 2.62 42 7 C43.68 9.92 44.33 12.3 44.63 15.64 C44.72 16.54 44.8 17.44 44.89 18.36 C44.97 19.32 45.04 20.27 45.12 21.25 C45.21 22.23 45.29 23.21 45.38 24.22 C47.88 55.59 47.88 55.59 41 64 C34.77 68.61 27.1 67.7 19.71 66.68 C15.73 65.71 12.72 64.05 10 61 C9.62 57.31 9.62 57.31 10 54 C10.33 53.67 10.66 53.34 11 53 C12.21 40.56 12.21 40.56 7.63 29.45 C2.01 24.47 -4.61 22.62 -12 23 C-14.83 23.46 -14.83 23.46 -17 25 C-19.36 29.6 -19.16 33.04 -18 38 C-17.01 40.62 -15.96 43.2 -14.84 45.77 C-14 48 -14 48 -14 51 C-13.34 51 -12.68 51 -12 51 C-11.38 52.33 -11.38 52.33 -10.75 53.69 C-9.08 56.85 -7.28 59.26 -5 62 C-2.48 65.33 -0.2 68.64 1.81 72.31 C5.23 78.47 9.93 84.12 15 89 C17 91 17 91 17 93 C17.66 93 18.32 93 19 93 C20.51 94.64 20.51 94.64 22.12 96.81 C22.93 97.87 22.93 97.87 23.76 98.96 C25 101 25 101 25 104 C26.49 104.5 26.49 104.5 28 105 C34.66 112.89 39.08 122.54 38.53 133 C36.34 145.37 27.56 154.06 17.87 161.36 C6.61 169.09 -4.17 172.54 -17.94 170.57 C-24.02 168.89 -28.95 164.69 -33 160 C-33 159.34 -33 158.68 -33 158 C-33.66 158 -34.32 158 -35 158 C-41.05 146.43 -46.5 135.45 -44.38 122.06 C-42.65 118.23 -41.67 117.11 -38 115 C-33.93 114.48 -29.91 114.58 -25.81 114.69 C-24.15 114.7 -24.15 114.7 -22.46 114.72 C-14.34 114.83 -14.34 114.83 -12 116 C-11.85 119.78 -11.92 122.74 -13.06 126.38 C-14.45 131.72 -14.31 136.29 -11.88 141.32 C-9.59 145.32 -9.59 145.32 -6 148 C-0.89 148.84 3.15 148.42 7.56 145.62 C10.51 143.09 11.62 141.27 11.94 137.38 C11.05 127.13 3.58 119.03 -3.28 111.96 C-5 110 -5 110 -5 108 C-5.66 108 -6.32 108 -7 108 C-8.54 106.28 -10.01 104.5 -11.44 102.69 C-14.45 98.84 -14.45 98.84 -17.79 95.27 C-19 94 -19 94 -19 92 C-19.66 92 -20.32 92 -21 92 C-21 91.01 -21 90.02 -21 89 C-22.49 88.5 -22.49 88.5 -24 88 C-25.55 86.07 -26.94 84.18 -28.31 82.12 C-28.71 81.54 -29.11 80.96 -29.51 80.35 C-40.38 64.09 -47.69 46.95 -44 27 C-41.34 18.86 -35.23 13.29 -28 9 C-23.04 6.67 -18.2 5.13 -12.88 3.88 C-12.19 3.71 -11.5 3.54 -10.79 3.36 C-7.2 2.49 -3.62 1.69 0 1 C0 0.67 0 0.34 0 0 Z " fill="#000002" transform="translate(901,306)"/>
<path d="M0 0 C1.13 0.04 2.27 0.08 3.44 0.12 C9.46 1.61 14.28 4.72 18.02 9.68 C25.69 22.57 23.46 41.53 23.39 55.92 C23.37 59.9 23.39 63.88 23.41 67.86 C23.45 117.92 23.45 117.92 13.95 135.22 C12.84 137.21 12.84 137.21 11.75 140.31 C8.66 147.69 3.37 154.25 -3 159 C-3.59 159.48 -4.18 159.96 -4.78 160.45 C-10.65 164.68 -16.87 165.34 -24 165 C-32.89 162.64 -39.6 157.31 -45 150 C-45.74 149.05 -45.74 149.05 -46.49 148.08 C-53.47 138.47 -56.98 126.71 -60.24 115.41 C-60.77 113.07 -60.77 113.07 -62 112 C-66.02 83.56 -63.89 49.25 -47.46 24.95 C-44.76 21.36 -42.77 19.66 -38.44 18.31 C-37.65 18.06 -36.87 17.81 -36.06 17.55 C-34 17 -34 17 -32 17 C-31.57 16.1 -31.57 16.1 -31.12 15.19 C-30 13 -30 13 -28 10 C-27.34 10 -26.68 10 -26 10 C-25.77 9.4 -25.55 8.8 -25.31 8.19 C-23.63 5.39 -21.87 4.5 -19 3 C-18.07 2.44 -18.07 2.44 -17.12 1.88 C-11.73 -0.35 -5.74 -0.23 0 0 Z M-2 40 C-2.1 40.56 -2.2 41.11 -2.3 41.69 C-3.52 47.94 -5.13 54 -9.63 58.7 C-13.53 60.84 -17.81 60.4 -22.16 60.35 C-25.76 60.43 -27.63 60.68 -30.39 63.06 C-32.28 66.51 -33.12 69.79 -33.75 73.62 C-33.94 74.6 -33.94 74.6 -34.13 75.59 C-35.81 85.1 -35.07 94.61 -33.81 104.12 C-33.68 105.12 -33.55 106.11 -33.42 107.13 C-31.97 117.35 -30.17 129.44 -24 138 C-21.2 139.34 -21.2 139.34 -18 139 C-14.78 136.87 -12.51 135.36 -11.12 131.69 C-11.08 131.13 -11.04 130.57 -11 130 C-10.34 130 -9.68 130 -9 130 C-1.18 109.5 2.37 89.48 2.32 67.54 C2.31 64.91 2.34 62.28 2.36 59.66 C2.36 57.97 2.36 56.28 2.36 54.59 C2.37 53.81 2.38 53.04 2.39 52.24 C2.35 47.42 1.54 44.23 -1 40 C-1.33 40 -1.66 40 -2 40 Z " fill="#000002" transform="translate(447,359)"/>
<path d="M0 0 C4.64 2.71 7.82 6.1 10 11 C10.66 11 11.32 11 12 11 C19.38 25.48 24.26 38.54 24.5 54.94 C24.53 56.23 24.53 56.23 24.56 57.56 C24.44 69.15 18.43 77.58 10.45 85.54 C1.39 94.01 -8.06 100.28 -19.11 105.8 C-23.02 107.79 -26.09 109.62 -29 113 C-28.28 115.02 -28.28 115.02 -27 117 C-25.68 117.37 -24.34 117.7 -23 118 C-20.41 119.21 -17.86 120.45 -15.31 121.75 C-14.6 122.11 -13.89 122.47 -13.16 122.84 C-8.58 125.16 -4.06 127.55 0.4 130.09 C1.58 130.76 2.78 131.39 4 132 C4 132.66 4 133.32 4 134 C4.87 134.19 4.87 134.19 5.75 134.38 C8.02 135.01 9.93 135.89 12 137 C12 137.66 12 138.32 12 139 C12.68 139.21 13.36 139.41 14.06 139.62 C17.97 141.45 20.84 144.1 24 147 C23.68 149.96 23.41 151.58 21.31 153.75 C14.4 157.48 3.84 156.97 -3.66 155.47 C-8.48 153.95 -12.71 151.65 -17 149 C-17 148.34 -17 147.68 -17 147 C-17.8 146.68 -17.8 146.68 -18.62 146.35 C-21.88 144.5 -24.43 142 -27.12 139.44 C-30.76 135.81 -30.76 135.81 -35 133 C-34.98 133.71 -34.96 134.42 -34.94 135.16 C-34.85 138.37 -34.8 141.59 -34.75 144.81 C-34.72 145.93 -34.68 147.05 -34.65 148.21 C-34.64 149.28 -34.62 150.35 -34.61 151.46 C-34.59 152.45 -34.57 153.44 -34.55 154.46 C-35 157 -35 157 -36.78 158.86 C-41.06 161.06 -45.84 159.26 -50.31 158.25 C-53.69 156.68 -54.33 155.29 -56 152 C-58.11 143.93 -58.49 135.39 -59.04 127.09 C-59.12 125.87 -59.2 124.65 -59.29 123.4 C-59.51 120.11 -59.72 116.83 -59.93 113.54 C-60.06 111.49 -60.2 109.44 -60.33 107.39 C-61.59 87.75 -62.47 68.12 -62.88 48.44 C-62.9 47.32 -62.93 46.21 -62.95 45.06 C-63.02 41.94 -63.07 38.81 -63.12 35.68 C-63.14 34.77 -63.16 33.85 -63.18 32.91 C-63.21 28.53 -63.22 24.92 -61 21 C-55.06 16.55 -48.3 15.1 -41 16 C-39.66 16.64 -38.32 17.31 -37 18 C-33.62 17.69 -32.28 16.38 -30 14 C-29.34 14 -28.68 14 -28 14 C-27.67 13.01 -27.34 12.02 -27 11 C-26.34 11 -25.68 11 -25 11 C-24.67 10.01 -24.34 9.02 -24 8 C-21.57 6.21 -21.57 6.21 -18.56 4.38 C-17.57 3.76 -16.59 3.15 -15.57 2.52 C-10.41 -0.53 -5.95 -0.99 0 0 Z M-33.75 35.12 C-36.29 40.96 -37.31 46.64 -36.58 52.98 C-35.91 59.54 -35.66 66.1 -35.44 72.69 C-35.39 73.88 -35.35 75.07 -35.31 76.29 C-35.2 79.2 -35.1 82.1 -35 85 C-25.75 82.5 -16.1 75.28 -10.06 67.88 C-5.97 60.71 -6.85 50.64 -8.77 42.89 C-10.58 38.11 -13.24 31.38 -18 29 C-25 28.42 -29.07 29.44 -33.75 35.12 Z " fill="#000002" transform="translate(751,346)"/>
<path d="M0 0 C12.17 8.89 20.8 27.88 23.6 42.34 C24.13 47.17 24.35 51.96 24.44 56.81 C24.46 57.7 24.48 58.58 24.51 59.49 C24.47 69.49 20.13 75.55 13.4 82.68 C2.63 93.1 -11.32 96.73 -26 97 C-26.84 100.52 -27.04 103.46 -26.7 107.05 C-26.61 108 -26.52 108.94 -26.43 109.92 C-26.33 110.89 -26.23 111.87 -26.12 112.88 C-25.99 114.33 -25.99 114.33 -25.85 115.81 C-25.45 119.89 -25.03 123.94 -24.36 127.99 C-23.89 131.92 -24.81 133.75 -27 137 C-30.27 139.15 -33.08 139.3 -36.94 139.31 C-37.96 139.33 -38.98 139.35 -40.03 139.36 C-44.36 138.83 -46.96 137.04 -50 134 C-50.5 131.8 -50.9 129.58 -51.25 127.35 C-51.36 126.69 -51.47 126.04 -51.57 125.36 C-51.91 123.26 -52.24 121.16 -52.56 119.06 C-52.89 116.97 -53.23 114.87 -53.56 112.78 C-53.87 110.87 -54.16 108.97 -54.46 107.06 C-54.93 103.97 -54.93 103.97 -56 101 C-56.18 99.34 -56.32 97.67 -56.44 96 C-56.75 92.34 -57.17 88.79 -57.88 85.19 C-60.31 72.43 -62 59.46 -62.75 46.5 C-63.11 41.48 -63.71 36.48 -64.34 31.48 C-65.26 23.8 -65.88 16.33 -63 9 C-58.31 3.48 -51.4 0.83 -44.39 -0.49 C-40.29 -0.73 -38.75 -0.58 -35.39 2.02 C-32.44 5.69 -31.62 8.78 -30.69 13.31 C-30.52 14.05 -30.35 14.79 -30.18 15.56 C-29.77 17.37 -29.38 19.18 -29 21 C-28.37 20.07 -27.74 19.14 -27.09 18.18 C-15.64 1.54 -15.64 1.54 -8.98 -0.67 C-5.62 -1.23 -3.31 -0.9 0 0 Z M-20.25 34.94 C-22.43 37.24 -24.38 39.68 -26.25 42.25 C-26.75 42.94 -27.25 43.62 -27.77 44.33 C-30.87 51.04 -30.08 58.79 -29.62 66 C-29.56 67.29 -29.56 67.29 -29.49 68.6 C-29.64 72.63 -29.64 72.63 -28 76 C-20.63 76.8 -14.28 76.1 -8 72 C-4.14 67.9 -4.02 62.42 -4 57 C-4.63 49.17 -8.17 39.42 -14.07 34.15 C-17.07 32.37 -17.57 32.63 -20.25 34.94 Z " fill="#000002" transform="translate(656,357)"/>
<path d="M0 0 C3.92 5.88 3.6 14.11 3 21 C2.15 24.23 1.47 25.63 -1.17 27.71 C-4.54 29.25 -7.67 29.96 -11.31 30.62 C-12 30.75 -12.69 30.88 -13.4 31.01 C-19.87 32.12 -26.31 32.48 -32.87 32.69 C-36.1 32.68 -36.1 32.68 -38 35 C-38.29 37.14 -38.29 37.14 -38.23 39.63 C-38.23 40.59 -38.23 41.55 -38.23 42.54 C-38.22 43.58 -38.21 44.62 -38.2 45.7 C-38.19 47.29 -38.19 47.29 -38.19 48.92 C-38.18 52.32 -38.15 55.72 -38.12 59.12 C-38.11 61.43 -38.11 63.73 -38.1 66.04 C-38.08 71.69 -38.04 77.35 -38 83 C-36.93 82.68 -35.86 82.36 -34.75 82.03 C-30.69 80.91 -26.99 80.49 -22.81 80.25 C-22.11 80.19 -21.42 80.14 -20.7 80.08 C-16.91 79.84 -14.21 79.85 -11 82 C-10.69 90.06 -10.69 90.06 -13 93 C-17.88 95.96 -22.14 96.61 -27.69 97.06 C-33.65 97.48 -33.65 97.48 -39 100 C-41.65 106.96 -41.93 114.17 -39 121 C-38.1 120.93 -37.21 120.86 -36.29 120.79 C-27.47 120.16 -18.68 119.76 -9.84 119.7 C-8.47 119.69 -7.1 119.67 -5.72 119.64 C-3.7 119.6 -1.67 119.59 0.36 119.57 C1.54 119.56 2.72 119.55 3.94 119.53 C7 120 7 120 9.38 121.77 C11.11 124.16 11.51 125.18 11.53 128.08 C11.54 129.23 11.54 129.23 11.55 130.41 C11.53 131.2 11.52 132 11.5 132.81 C11.52 133.99 11.52 133.99 11.55 135.18 C11.51 140.88 10.5 144.44 7 149 C2.19 151.59 -2.59 151.13 -7.88 150.75 C-8.71 150.7 -9.55 150.65 -10.42 150.59 C-16.92 150.15 -23.35 149.42 -29.81 148.52 C-32.92 148.11 -36.03 147.83 -39.16 147.6 C-40.05 147.53 -40.93 147.46 -41.85 147.39 C-43.56 147.26 -45.28 147.14 -47 147.05 C-52.97 146.57 -57.37 144.87 -62 141 C-64.52 137.23 -64.41 134.01 -64.56 129.62 C-64.62 128.12 -64.69 126.61 -64.75 125.1 C-64.78 124.43 -64.8 123.77 -64.83 123.08 C-64.96 120.96 -64.96 120.96 -65.49 118.79 C-66.08 115.57 -66.21 112.49 -66.3 109.22 C-66.32 108.55 -66.34 107.89 -66.36 107.21 C-66.42 105.02 -66.48 102.84 -66.54 100.65 C-66.58 99.11 -66.62 97.57 -66.67 96.03 C-66.76 92.8 -66.84 89.57 -66.93 86.33 C-67.04 82.24 -67.15 78.16 -67.27 74.07 C-68.08 45.56 -68.08 45.56 -68.1 33.63 C-68.1 32.92 -68.11 32.2 -68.11 31.47 C-68.05 17.24 -68.05 17.24 -64.02 12.84 C-59.92 10.34 -56.01 9.76 -51.31 9 C-45.06 7.88 -39.43 6.63 -33.62 4.01 C-29.95 2.59 -26.2 1.71 -22.38 0.81 C-21.67 0.65 -20.96 0.48 -20.24 0.31 C-6.1 -2.91 -6.1 -2.91 0 0 Z " fill="#000002" transform="translate(848,346)"/>
<path d="M0 0 C1.88 0.25 1.88 0.25 4 1 C13.77 15.32 7.12 52.89 4.22 69.05 C0.94 86.1 -6.15 102.36 -17 116 C-17.66 116 -18.32 116 -19 116 C-19 116.66 -19 117.32 -19 118 C-25.89 121.84 -25.89 121.84 -30 121 C-36.52 115.62 -40.49 108.95 -43 101 C-43.37 99.87 -43.74 98.73 -44.12 97.56 C-46.21 89.08 -46.16 80.56 -46.12 71.88 C-46.12 70.08 -46.12 70.08 -46.11 68.24 C-45.9 33.8 -45.9 33.8 -39.62 26.62 C-36.32 24.58 -35.69 25.18 -32 26 C-21.85 27.04 -21.85 27.04 -12.62 23.62 C-10.01 21.29 -10.01 21.29 -9 19 C-8.34 19 -7.68 19 -7 19 C-6.83 18.38 -6.66 17.77 -6.48 17.13 C-4.78 11.17 -2.66 5.6 0 0 Z " fill="#000002" transform="translate(626,584)"/>
<path d="M0 0 C4.46 -0.44 6.35 -0.51 9.94 2.31 C12 5 12 5 12 8 C12.66 8 13.32 8 14 8 C21.11 21.44 26.28 34.64 25 50 C23.37 54.82 20.74 57.61 17 61 C16.26 61.7 15.51 62.4 14.75 63.12 C8.25 67.56 1.9 68.3 -5.81 68.44 C-6.55 68.46 -7.3 68.48 -8.06 68.5 C-11.49 68.49 -13.61 68.27 -16.45 66.29 C-19.9 61.2 -19.09 55.3 -19 49.38 C-18.97 47.67 -18.95 45.97 -18.94 44.27 C-18.93 43.52 -18.91 42.78 -18.9 42.01 C-18.92 39.79 -18.92 39.79 -20 37 C-20.99 28.01 -19 21.67 -13.39 14.65 C-5.32 4.89 -5.32 4.89 -2 2 C-1.34 2 -0.68 2 0 2 C0 1.34 0 0.68 0 0 Z " fill="#000002" transform="translate(735,581)"/>
<path d="M0 0 C1.48 0.98 1.48 0.98 3 3 C3.27 5.86 3.37 8.5 3.33 11.36 C3.33 12.59 3.33 12.59 3.32 13.85 C3.32 15.59 3.3 17.34 3.28 19.08 C3.25 21.73 3.24 24.37 3.23 27.02 C3.23 28.72 3.21 30.41 3.2 32.11 C3.2 33.29 3.2 33.29 3.19 34.49 C3.13 39.08 2.69 43.45 2 48 C1.81 50.4 1.64 52.81 1.5 55.21 C1.42 56.55 1.33 57.89 1.25 59.23 C1.12 61.32 1 63.4 0.88 65.49 C0.75 67.52 0.63 69.55 0.5 71.59 C0.43 72.79 0.36 74 0.28 75.24 C0 78 0 78 -1 79 C-8.25 79.88 -13.65 78.44 -20 75 C-20.33 71.63 -19.77 69.11 -18.64 65.98 C-16.88 60.83 -15.71 55.63 -14.56 50.31 C-12.9 42.78 -11.03 35.42 -8.84 28.03 C-7.81 24.3 -7.14 20.56 -6.49 16.75 C-5.93 13.62 -5.28 10.53 -4.56 7.44 C-4.34 6.45 -4.11 5.45 -3.88 4.43 C-3 2 -3 2 0 0 Z " fill="#000002" transform="translate(962,570)"/>
<path d="M0 0 C1.32 0.33 2.64 0.66 4 1 C5.72 6.5 6.71 11.92 7.5 17.62 C7.63 18.54 7.76 19.45 7.89 20.39 C8.89 27.75 9.64 35.12 10.3 42.52 C10.76 47.73 11.37 52.89 12.12 58.06 C14.39 74.23 14.39 74.23 12 79 C6.93 80.16 0.97 80.83 -4 79 C-6.79 75.49 -7.37 72.86 -7.25 68.44 C-7.22 67.39 -7.19 66.33 -7.16 65.25 C-6.82 58.38 -6.34 51.7 -5.03 44.94 C-3.86 38.65 -3.37 32.38 -2.94 26 C-1.98 12.46 -1.98 12.46 -1.5 6.81 C-1.43 5.93 -1.36 5.05 -1.28 4.14 C-1 2 -1 2 0 0 Z " fill="#000002" transform="translate(338,626)"/>
<path d="M0 0 C3.9 3.06 7.76 7.02 9.31 11.81 C10.03 17.84 9.02 21.63 5.88 26.83 C3.43 29.93 0.9 31.19 -2.69 32.81 C-3.68 33.31 -3.68 33.31 -4.69 33.81 C-10.33 34.19 -13.81 33.96 -18.69 30.81 C-25.42 24.69 -25.42 24.69 -26.13 19.74 C-26.5 8.78 -26.5 8.78 -22.69 4.12 C-15.92 -2.22 -8.62 -3.81 0 0 Z " fill="#000002" transform="translate(424.6875,223.1875)"/>
<path d="M0 0 C3.8 2.01 5.62 3.43 8 7 C8.27 10.25 8.27 10.25 8.25 14 C8.26 15.24 8.26 16.47 8.27 17.75 C8 21 8 21 6 24 C5.34 24 4.68 24 4 24 C4 24.66 4 25.32 4 26 C-1.15 28.25 -5.63 28.54 -11 27 C-15.37 23.58 -18.66 19.66 -19.38 14.06 C-18.94 10.52 -17.76 8.08 -16 5 C-15.34 5 -14.68 5 -14 5 C-13.67 4.01 -13.34 3.02 -13 2 C-8.91 -0.66 -4.72 -0.68 0 0 Z " fill="#000002" transform="translate(787,209)"/>
<path d="M0 0 C0 0.33 0 0.66 0 1 C-10.46 2.27 -20.54 2.27 -31 1 C-31 0.67 -31 0.34 -31 0 C-20.66 -1.54 -10.38 -0.66 0 0 Z " fill="#FAFDFF" transform="translate(256,865)"/>
<path d="M0 0 C2.41 3.74 2.24 7.07 2.19 11.44 C2.18 12.74 2.17 14.03 2.17 15.37 C2.03 18.39 1.7 21.07 1 24 C0.67 24 0.34 24 0 24 C-1.33 7.11 -1.33 7.11 0 0 Z " fill="#FAFDFF" transform="translate(1189,708)"/>
<path d="M0 0 C2.31 0 4.62 0 7 0 C7 0.33 7 0.66 7 1 C4.69 1 2.38 1 0 1 C0 0.67 0 0.34 0 0 Z " fill="#FAFDFF" transform="translate(503,770)"/>
<path d="M0 0 C0.33 0 0.66 0 1 0 C1 2.31 1 4.62 1 7 C0.67 7 0.34 7 0 7 C0 4.69 0 2.38 0 0 Z " fill="#FAFDFF" transform="translate(796,219)"/>
<path d="" fill="#FAFDFF" transform="translate(0,0)"/>
<path d="" fill="#FAFDFF" transform="translate(0,0)"/>
<path d="" fill="#FAFDFF" transform="translate(0,0)"/>
<path d="" fill="#FAFDFF" transform="translate(0,0)"/>
<path d="" fill="#FAFDFF" transform="translate(0,0)"/>
<path d="" fill="#FAFDFF" transform="translate(0,0)"/>
<path d="" fill="#FAFDFF" transform="translate(0,0)"/>
<path d="" fill="#FAFDFF" transform="translate(0,0)"/>
<path d="" fill="#FAFDFF" transform="translate(0,0)"/>
<path d="" fill="#FAFDFF" transform="translate(0,0)"/>
<path d="" fill="#FAFDFF" transform="translate(0,0)"/>
<path d="" fill="#FAFDFF" transform="translate(0,0)"/>
<path d="" fill="#000002" transform="translate(0,0)"/>
<path d="" fill="#000002" transform="translate(0,0)"/>
<path d="" fill="#000002" transform="translate(0,0)"/>
</svg>
